<svg width="306" height="108" viewBox="0 0 306 108" fill="none" xmlns="http://www.w3.org/2000/svg">
<path d="M36.2898 73.8114C35.826 74.1426 35.3163 74.2731 34.7606 74.2031C34.2123 74.0889 33.7726 73.8 33.4414 73.3362L13.0771 44.8154L16.4006 42.4423L36.765 70.9631C37.0961 71.4269 37.2267 71.9366 37.1567 72.4923C37.0683 73.0222 36.7793 73.4619 36.2898 73.8114ZM6.36838 54.2151C5.90463 54.5462 5.42987 54.6712 4.94411 54.5902C4.43996 54.4834 4.04071 54.2239 3.74637 53.8116C3.41524 53.3479 3.29021 52.8731 3.37125 52.3874C3.4523 51.9016 3.7247 51.4932 4.18846 51.162L25.3279 36.0681C25.7916 35.737 26.2664 35.6119 26.7521 35.693C27.2379 35.774 27.6463 36.0464 27.9775 36.5102C28.2718 36.9224 28.3876 37.3843 28.325 37.8958C28.2439 38.3816 27.9715 38.79 27.5078 39.1211L6.36838 54.2151Z" fill="white"/>
<path d="M66.609 56.4157C64.2332 57.4619 61.9094 57.8798 59.6376 57.6695C57.353 57.4302 55.2873 56.6276 53.4405 55.2616C51.5937 53.8956 50.1536 52.0392 49.1202 49.6924C48.0741 47.3166 47.648 45.0136 47.8421 42.7835C48.0234 40.5245 48.7392 38.4971 49.9893 36.7013C51.2684 34.8928 53.0379 33.491 55.2977 32.4959C57.4997 31.5262 59.6352 31.1912 61.7042 31.4908C63.7894 31.7487 65.6557 32.57 67.3032 33.9546C68.9796 35.3264 70.3153 37.1423 71.3105 39.4022C71.5274 39.8947 71.5466 40.3705 71.3683 40.8296C71.1771 41.2596 70.8353 41.5831 70.3428 41.8L52.1767 49.7993L50.8563 46.8006L69.2396 38.7056L67.945 40.8323C67.2722 39.226 66.351 37.9194 65.1812 36.9125C64.0114 35.9056 62.7021 35.2888 61.2532 35.0621C59.8043 34.8353 58.2976 35.0664 56.733 35.7553C55.0816 36.4825 53.7988 37.4971 52.8846 38.799C51.9995 40.0881 51.5235 41.5602 51.4568 43.2154C51.4063 44.8288 51.7573 46.4903 52.5101 48.1997C53.2628 49.9091 54.3092 51.2643 55.6494 52.2653C56.9896 53.2664 58.4774 53.8565 60.1129 54.0357C61.7774 54.2021 63.4643 53.909 65.1737 53.1562C66.1588 52.7225 67.0818 52.1085 67.9428 51.3143C68.8327 50.5073 69.467 49.7091 69.8458 48.9197C70.0787 48.5058 70.4124 48.2032 70.847 48.0118C71.2978 47.7787 71.7255 47.7288 72.13 47.862C72.7305 48.0472 73.1264 48.3572 73.3178 48.7918C73.5381 49.2136 73.5156 49.6732 73.2504 50.1705C72.6515 51.4027 71.728 52.605 70.4801 53.7771C69.2321 54.9493 67.9417 55.8288 66.609 56.4157Z" fill="white"/>
<path d="M96.5269 56.3903C95.9042 56.5046 95.3717 56.4093 94.9295 56.1042C94.5241 55.8246 94.2642 55.3734 94.1499 54.7506L90.1461 32.939C89.7314 30.5045 89.9074 28.2192 90.674 26.0829C91.466 23.9098 92.7243 22.0856 94.4491 20.6103C96.1681 19.1038 98.242 18.1277 100.671 17.6818C103.162 17.2246 105.478 17.3948 107.62 18.1925C109.788 18.9534 111.612 20.2118 113.093 21.9677C114.605 23.7178 115.59 25.8384 116.047 28.3294C116.498 30.7892 116.359 33.1 115.63 35.2617C114.931 37.4177 113.753 39.2432 112.097 40.7382C110.434 42.2021 108.42 43.1512 106.053 43.5856C104.029 43.9571 102.115 43.874 100.31 43.3362C98.5002 42.7673 96.9527 41.8766 95.6679 40.664L98.1199 54.0219C98.2342 54.6446 98.136 55.1616 97.8252 55.5727C97.5202 56.0149 97.0874 56.2874 96.5269 56.3903ZM104.795 40.1474C106.538 39.8273 108.021 39.1368 109.242 38.0757C110.489 36.9778 111.37 35.6412 111.886 34.066C112.432 32.4851 112.543 30.8072 112.217 29.0324C111.886 27.2264 111.186 25.6972 110.12 24.4446C109.078 23.1552 107.78 22.2187 106.224 21.6352C104.7 21.046 103.066 20.9114 101.322 21.2315C99.6409 21.5401 98.1767 22.2434 96.9299 23.3413C95.7141 24.4335 94.8485 25.7672 94.333 27.3424C93.8118 28.8865 93.7169 30.5615 94.0484 32.3675C94.3742 34.1423 95.0578 35.6744 96.0991 36.9639C97.1405 38.2533 98.4234 39.1926 99.9477 39.7818C101.466 40.3399 103.082 40.4618 104.795 40.1474Z" fill="white"/>
<path d="M147.638 40.0521C145.236 39.9161 143.119 39.2256 141.287 37.9804C139.456 36.7036 138.045 35.0383 137.051 32.9845C136.057 30.9307 135.631 28.6553 135.773 26.1583C135.916 23.6298 136.613 21.402 137.863 19.4752C139.145 17.5501 140.814 16.075 142.87 15.0498C144.927 13.9931 147.204 13.5353 149.701 13.6766C152.167 13.8161 154.346 14.5261 156.239 15.8064C158.166 17.057 159.642 18.71 160.667 20.7657C161.724 22.8231 162.197 25.117 162.085 27.6473L160.428 28.3621C160.295 30.701 159.639 32.7724 158.459 34.5764C157.311 36.3822 155.788 37.7864 153.893 38.7889C152.03 39.7616 149.945 40.1826 147.638 40.0521ZM148.411 36.4811C150.181 36.5812 151.769 36.2589 153.174 35.514C154.613 34.7393 155.769 33.6474 156.641 32.2381C157.545 30.8307 158.048 29.2262 158.15 27.4246C158.254 25.5914 157.935 23.9404 157.194 22.4716C156.486 20.973 155.461 19.7576 154.119 18.8255C152.808 17.8952 151.267 17.38 149.497 17.2798C147.759 17.1815 146.154 17.5187 144.684 18.2916C143.245 19.0663 142.073 20.1574 141.169 21.5648C140.267 22.9406 139.764 24.5451 139.66 26.3783C139.558 28.1799 139.877 29.8309 140.617 31.3313C141.356 32.8318 142.397 34.048 143.739 34.9801C145.115 35.8824 146.672 36.3827 148.411 36.4811ZM159.314 40.475C158.745 40.4428 158.265 40.2412 157.874 39.8703C157.516 39.4696 157.354 38.9689 157.388 38.3684L157.831 30.5457L158.965 26.4719L162.085 27.6473L161.466 38.5991C161.432 39.1997 161.214 39.6788 160.814 40.0366C160.415 40.3629 159.915 40.509 159.314 40.475Z" fill="white"/>
<path d="M200.361 49.2335C199.785 49.06 199.37 48.7366 199.116 48.2633C198.861 47.79 198.817 47.2805 198.981 46.7349L202.474 35.1406C203.031 33.2916 203.134 31.6861 202.784 30.3242C202.473 28.9412 201.814 27.7836 200.805 26.8515C199.806 25.8892 198.548 25.1797 197.032 24.7231C195.608 24.2939 194.233 24.1937 192.907 24.4226C191.622 24.6304 190.499 25.1188 189.54 25.8878C188.59 26.6266 187.928 27.6174 187.553 28.8602L184.916 28.0657C185.552 26.1743 186.564 24.6275 187.951 23.4253C189.377 22.202 191.026 21.3927 192.898 20.9977C194.769 20.6026 196.69 20.7019 198.66 21.2955C200.782 21.9347 202.54 22.9602 203.933 24.3718C205.365 25.7622 206.306 27.4674 206.756 29.4874C207.236 31.5165 207.097 33.7891 206.339 36.3049L202.846 47.8992C202.681 48.4448 202.362 48.8447 201.889 49.0989C201.416 49.353 200.906 49.3979 200.361 49.2335ZM181.082 43.4256C180.476 43.243 180.041 42.9301 179.778 42.4871C179.554 42.0229 179.529 41.5029 179.703 40.9269L186.031 19.9208C186.214 19.3146 186.522 18.895 186.956 18.662C187.429 18.4079 187.969 18.3721 188.575 18.5547C189.151 18.7283 189.551 19.0471 189.775 19.5113C190.038 19.9543 190.078 20.4789 189.896 21.0852L183.567 42.0913C183.394 42.6672 183.07 43.0822 182.597 43.3364C182.163 43.5694 181.658 43.5991 181.082 43.4256Z" fill="white"/>
<path d="M229.366 62.3519C227.427 61.2143 225.926 59.801 224.861 58.112C223.84 56.4116 223.349 54.527 223.389 52.458C223.428 50.3889 224.113 48.2213 225.443 45.9551L231.571 35.5115C231.86 35.02 232.264 34.7066 232.784 34.5712C233.304 34.4358 233.81 34.5123 234.301 34.8007C234.792 35.0891 235.106 35.4933 235.241 36.0132C235.377 36.5331 235.3 37.0388 235.012 37.5303L228.883 47.9739C227.906 49.6394 227.419 51.1889 227.422 52.6222C227.441 54.0283 227.823 55.3168 228.567 56.4877C229.328 57.6313 230.377 58.5957 231.715 59.3808C232.998 60.1338 234.303 60.569 235.629 60.6864C236.97 60.7765 238.19 60.5745 239.287 60.0806C240.401 59.5594 241.286 58.739 241.943 57.6196L244.277 58.9895C243.213 60.6776 241.858 61.9559 240.21 62.8244C238.579 63.6656 236.807 64.0575 234.895 64.0001C232.984 63.9427 231.14 63.3933 229.366 62.3519ZM238.52 67.3935C238.001 67.0891 237.666 66.6905 237.515 66.1979C237.407 65.694 237.513 65.1691 237.833 64.623L248.937 45.7015C249.241 45.1828 249.632 44.8613 250.108 44.7372C250.628 44.6019 251.147 44.6864 251.666 44.9908C252.185 45.2952 252.512 45.7074 252.647 46.2273C252.799 46.7199 252.722 47.2256 252.418 47.7444L241.314 66.6658C240.994 67.2119 240.574 67.5526 240.054 67.688C239.55 67.7961 239.039 67.6979 238.52 67.3935Z" fill="white"/>
<path d="M268.319 90.909C267.927 90.5403 267.712 90.0989 267.674 89.585C267.68 89.0697 267.9 88.5814 268.334 88.1203L273.02 83.1399L267.694 78.129L268.052 77.7485C266.853 76.6205 266.008 75.3697 265.518 73.9961C265.073 72.6211 264.999 71.2685 265.294 69.9381C265.611 68.5847 266.312 67.3316 267.397 66.1787C268.525 64.9798 269.81 64.1679 271.253 63.7432C272.719 63.3402 274.208 63.3507 275.722 63.7749C277.28 64.1977 278.716 65.0273 280.03 66.2638L286.117 71.9907C286.578 72.4245 286.806 72.8991 286.799 73.4144C286.837 73.9283 286.639 74.4159 286.205 74.877L271.172 90.8556C270.737 91.272 270.251 91.4884 269.714 91.5048C269.222 91.5198 268.757 91.3212 268.319 90.909ZM255.949 78.5543C255.91 77.9956 256.042 77.5548 256.345 77.2321C256.672 76.9309 257.092 76.739 257.604 76.6562L267.836 75.0676L271.575 78.7161L258.36 80.4964C257.668 80.5847 257.103 80.4003 256.663 79.9434C256.202 79.5096 255.964 79.0465 255.949 78.5543ZM270.659 76.2245L275.363 80.6498L282.196 73.3868L277.492 68.9615C276.385 67.9203 275.137 67.376 273.747 67.3288C272.402 67.2803 271.23 67.7863 270.233 68.8469C269.148 69.9998 268.66 71.2576 268.769 72.6204C268.922 73.9819 269.552 75.1832 270.659 76.2245Z" fill="white"/>
</svg>
