<svg width="131" height="17" viewBox="0 0 131 17" fill="none" xmlns="http://www.w3.org/2000/svg">
<path d="M12.3316 16.3628C12.1449 16.5495 11.8916 16.6361 11.5716 16.6228C11.2516 16.6228 10.9982 16.5161 10.8116 16.3028L4.25156 8.6628L10.3716 1.3428C10.5582 1.11614 10.7982 1.0028 11.0916 1.0028C11.3982 0.989468 11.6449 1.08947 11.8316 1.3028C12.0182 1.51614 12.1049 1.7428 12.0916 1.9828C12.0916 2.20947 11.9982 2.42947 11.8116 2.6428L6.75156 8.5228L12.3316 15.0028C12.5182 15.2161 12.6182 15.4428 12.6316 15.6828C12.6582 15.9095 12.5582 16.1361 12.3316 16.3628ZM1.89156 16.6228C1.59823 16.6228 1.35156 16.5228 1.15156 16.3228C0.951563 16.1228 0.851563 15.8761 0.851563 15.5828V2.0428C0.851563 1.73614 0.951563 1.48947 1.15156 1.3028C1.35156 1.1028 1.59823 1.0028 1.89156 1.0028C2.19823 1.0028 2.4449 1.1028 2.63156 1.3028C2.83156 1.48947 2.93156 1.73614 2.93156 2.0428V7.7828H6.21156V9.6228H2.93156V15.5828C2.93156 15.8761 2.83156 16.1228 2.63156 16.3228C2.4449 16.5228 2.19823 16.6228 1.89156 16.6228ZM19.0491 16.7028C17.9691 16.7028 17.0157 16.4695 16.1891 16.0028C15.3624 15.5228 14.7091 14.8695 14.2291 14.0428C13.7624 13.2028 13.5291 12.2428 13.5291 11.1628C13.5291 10.0695 13.7624 9.10947 14.2291 8.2828C14.7091 7.4428 15.3624 6.78947 16.1891 6.3228C17.0157 5.8428 17.9691 5.6028 19.0491 5.6028C20.1157 5.6028 21.0624 5.8428 21.8891 6.3228C22.7157 6.78947 23.3624 7.4428 23.8291 8.2828C24.3091 9.10947 24.5491 10.0695 24.5491 11.1628C24.5491 12.2428 24.3157 13.2028 23.8491 14.0428C23.3824 14.8695 22.7357 15.5228 21.9091 16.0028C21.0824 16.4695 20.1291 16.7028 19.0491 16.7028ZM19.0491 14.9028C19.7424 14.9028 20.3557 14.7428 20.8891 14.4228C21.4224 14.1028 21.8357 13.6628 22.1291 13.1028C22.4357 12.5428 22.5891 11.8961 22.5891 11.1628C22.5891 10.4295 22.4357 9.7828 22.1291 9.2228C21.8357 8.64947 21.4224 8.2028 20.8891 7.8828C20.3557 7.5628 19.7424 7.4028 19.0491 7.4028C18.3557 7.4028 17.7424 7.5628 17.2091 7.8828C16.6757 8.2028 16.2557 8.64947 15.9491 9.2228C15.6424 9.7828 15.4891 10.4295 15.4891 11.1628C15.4891 11.8961 15.6424 12.5428 15.9491 13.1028C16.2557 13.6628 16.6757 14.1028 17.2091 14.4228C17.7424 14.7428 18.3557 14.9028 19.0491 14.9028ZM28.6052 16.6228C28.3118 16.6228 28.0652 16.5295 27.8652 16.3428C27.6785 16.1428 27.5852 15.8961 27.5852 15.6028V6.7028C27.5852 6.39614 27.6785 6.14947 27.8652 5.9628C28.0652 5.77614 28.3118 5.6828 28.6052 5.6828C29.0318 5.6828 29.3918 5.88947 29.6852 6.3028L33.8252 12.2828L37.9652 6.3028C38.2585 5.88947 38.6185 5.6828 39.0452 5.6828C39.3518 5.6828 39.5985 5.77614 39.7852 5.9628C39.9718 6.14947 40.0652 6.39614 40.0652 6.7028V15.6028C40.0652 15.8961 39.9718 16.1428 39.7852 16.3428C39.5985 16.5295 39.3518 16.6228 39.0452 16.6228C38.7518 16.6228 38.5052 16.5295 38.3052 16.3428C38.1185 16.1428 38.0252 15.8961 38.0252 15.6028V8.3228L38.5452 8.4828L34.8652 13.6828C34.5318 14.1495 34.1718 14.3828 33.7852 14.3828C33.3985 14.3695 33.0452 14.1361 32.7252 13.6828L29.1052 8.4828L29.6252 8.3228V15.6028C29.6252 15.8961 29.5318 16.1428 29.3452 16.3428C29.1585 16.5295 28.9118 16.6228 28.6052 16.6228ZM48.5994 16.8028C47.5994 16.8028 46.726 16.6228 45.9794 16.2628C45.246 15.9028 44.6727 15.3961 44.2594 14.7428C43.8594 14.0761 43.6594 13.2961 43.6594 12.4028V6.6828C43.686 6.4028 43.7927 6.16947 43.9794 5.9828C44.1794 5.7828 44.4127 5.6828 44.6794 5.6828C44.9727 5.6828 45.2127 5.7828 45.3994 5.9828C45.5994 6.16947 45.6994 6.40947 45.6994 6.7028V8.9428H48.9794C49.846 8.9428 50.6194 9.09614 51.2994 9.4028C51.9927 9.69614 52.5394 10.1295 52.9394 10.7028C53.3394 11.2628 53.5394 11.9361 53.5394 12.7228C53.5394 13.5095 53.3327 14.2095 52.9194 14.8228C52.5194 15.4361 51.9527 15.9228 51.2194 16.2828C50.486 16.6295 49.6127 16.8028 48.5994 16.8028ZM48.5794 14.9228C49.4327 14.9228 50.146 14.7428 50.7194 14.3828C51.2927 14.0095 51.5794 13.4561 51.5794 12.7228C51.5794 12.0295 51.3327 11.5161 50.8394 11.1828C50.346 10.8361 49.726 10.6628 48.9794 10.6628H45.6994V12.3628C45.6994 12.8428 45.826 13.2761 46.0794 13.6628C46.3327 14.0495 46.6727 14.3561 47.0994 14.5828C47.5394 14.8095 48.0327 14.9228 48.5794 14.9228ZM57.2575 16.6428C56.9642 16.6428 56.7175 16.5495 56.5175 16.3628C56.3308 16.1628 56.2375 15.9161 56.2375 15.6228V6.7028C56.2375 6.39614 56.3308 6.14947 56.5175 5.9628C56.7175 5.77614 56.9642 5.6828 57.2575 5.6828C57.5642 5.6828 57.8108 5.77614 57.9975 5.9628C58.1842 6.14947 58.2775 6.39614 58.2775 6.7028V15.6228C58.2775 15.9161 58.1842 16.1628 57.9975 16.3628C57.8108 16.5495 57.5642 16.6428 57.2575 16.6428ZM58.0175 11.9228C57.7375 11.9228 57.5108 11.8361 57.3375 11.6628C57.1642 11.4895 57.0775 11.2628 57.0775 10.9828C57.0775 10.7028 57.1642 10.4761 57.3375 10.3028C57.5108 10.1295 57.7375 10.0428 58.0175 10.0428H61.0375C61.3175 10.0428 61.5442 10.1295 61.7175 10.3028C61.8908 10.4761 61.9775 10.7028 61.9775 10.9828C61.9775 11.2628 61.8908 11.4895 61.7175 11.6628C61.5442 11.8361 61.3175 11.9228 61.0375 11.9228H58.0175ZM65.9975 16.7028C64.9175 16.7028 63.9642 16.4695 63.1375 16.0028C62.3108 15.5228 61.6575 14.8695 61.1775 14.0428C60.7108 13.2028 60.4775 12.2428 60.4775 11.1628C60.4775 10.0695 60.7108 9.10947 61.1775 8.2828C61.6575 7.4428 62.3108 6.78947 63.1375 6.3228C63.9642 5.8428 64.9175 5.6028 65.9975 5.6028C67.0642 5.6028 68.0108 5.8428 68.8375 6.3228C69.6642 6.78947 70.3108 7.4428 70.7775 8.2828C71.2575 9.10947 71.4975 10.0695 71.4975 11.1628C71.4975 12.2428 71.2642 13.2028 70.7975 14.0428C70.3308 14.8695 69.6842 15.5228 68.8575 16.0028C68.0308 16.4695 67.0775 16.7028 65.9975 16.7028ZM65.9975 14.9028C66.6908 14.9028 67.3042 14.7428 67.8375 14.4228C68.3708 14.1028 68.7842 13.6628 69.0775 13.1028C69.3842 12.5428 69.5375 11.8961 69.5375 11.1628C69.5375 10.4295 69.3842 9.7828 69.0775 9.2228C68.7842 8.64947 68.3708 8.2028 67.8375 7.8828C67.3042 7.5628 66.6908 7.4028 65.9975 7.4028C65.3042 7.4028 64.6908 7.5628 64.1575 7.8828C63.6242 8.2028 63.2042 8.64947 62.8975 9.2228C62.5908 9.7828 62.4375 10.4295 62.4375 11.1628C62.4375 11.8961 62.5908 12.5428 62.8975 13.1028C63.2042 13.6628 63.6242 14.1028 64.1575 14.4228C64.6908 14.7428 65.3042 14.9028 65.9975 14.9028ZM83.7383 16.6228C83.4449 16.6228 83.1983 16.5295 82.9983 16.3428C82.8116 16.1428 82.7183 15.8961 82.7183 15.6028V6.7028C82.7183 6.39614 82.8116 6.14947 82.9983 5.9628C83.1983 5.77614 83.4449 5.6828 83.7383 5.6828C84.0449 5.6828 84.2849 5.77614 84.4583 5.9628C84.6316 6.14947 84.7183 6.39614 84.7183 6.7028V15.6028C84.7183 15.8961 84.6316 16.1428 84.4583 16.3428C84.2849 16.5295 84.0449 16.6228 83.7383 16.6228ZM75.5183 16.6228C75.2249 16.6228 74.9849 16.5295 74.7983 16.3428C74.6249 16.1428 74.5383 15.8961 74.5383 15.6028V6.7028C74.5383 6.39614 74.6249 6.14947 74.7983 5.9628C74.9849 5.77614 75.2249 5.6828 75.5183 5.6828C75.8249 5.6828 76.0716 5.77614 76.2583 5.9628C76.4449 6.14947 76.5383 6.39614 76.5383 6.7028V15.6028C76.5383 15.8961 76.4449 16.1428 76.2583 16.3428C76.0716 16.5295 75.8249 16.6228 75.5183 16.6228ZM76.2783 11.8428V10.0428H83.2983V11.8428H76.2783ZM92.9273 16.7228C92.0073 16.7228 91.1807 16.5295 90.4473 16.1428C89.7273 15.7428 89.154 15.1628 88.7273 14.4028C88.314 13.6428 88.1073 12.7095 88.1073 11.6028V6.6828C88.1073 6.38947 88.2007 6.14947 88.3873 5.9628C88.5873 5.7628 88.834 5.6628 89.1273 5.6628C89.4207 5.6628 89.6607 5.7628 89.8473 5.9628C90.0473 6.14947 90.1473 6.38947 90.1473 6.6828V11.6028C90.1473 12.3495 90.2873 12.9695 90.5673 13.4628C90.8473 13.9428 91.2273 14.3028 91.7073 14.5428C92.1873 14.7695 92.7273 14.8828 93.3273 14.8828C93.9007 14.8828 94.4073 14.7695 94.8473 14.5428C95.3007 14.3161 95.6607 14.0095 95.9273 13.6228C96.194 13.2361 96.3273 12.8028 96.3273 12.3228H97.5873C97.5873 13.1495 97.3807 13.8961 96.9673 14.5628C96.5673 15.2295 96.014 15.7561 95.3073 16.1428C94.614 16.5295 93.8207 16.7228 92.9273 16.7228ZM97.3473 16.6228C97.054 16.6228 96.8073 16.5295 96.6073 16.3428C96.4207 16.1428 96.3273 15.8961 96.3273 15.6028V6.6828C96.3273 6.37614 96.4207 6.12947 96.6073 5.9428C96.8073 5.75614 97.054 5.6628 97.3473 5.6628C97.654 5.6628 97.9007 5.75614 98.0873 5.9428C98.274 6.12947 98.3673 6.37614 98.3673 6.6828V15.6028C98.3673 15.8961 98.274 16.1428 98.0873 16.3428C97.9007 16.5295 97.654 16.6228 97.3473 16.6228ZM116.32 16.6428C116.027 16.6428 115.78 16.5495 115.58 16.3628C115.393 16.1628 115.3 15.9161 115.3 15.6228V9.9028C115.3 9.0628 115.093 8.4428 114.68 8.0428C114.267 7.62947 113.727 7.4228 113.06 7.4228C112.367 7.4228 111.793 7.6628 111.34 8.1428C110.9 8.6228 110.68 9.23614 110.68 9.9828H109.02C109.02 9.11614 109.207 8.35614 109.58 7.7028C109.953 7.03614 110.473 6.51614 111.14 6.1428C111.82 5.76947 112.593 5.5828 113.46 5.5828C114.22 5.5828 114.893 5.74947 115.48 6.0828C116.067 6.41614 116.52 6.90947 116.84 7.5628C117.173 8.2028 117.34 8.9828 117.34 9.9028V15.6228C117.34 15.9161 117.247 16.1628 117.06 16.3628C116.873 16.5495 116.627 16.6428 116.32 16.6428ZM102.98 16.6428C102.687 16.6428 102.44 16.5495 102.24 16.3628C102.053 16.1628 101.96 15.9161 101.96 15.6228V6.7228C101.96 6.41614 102.053 6.16947 102.24 5.9828C102.44 5.79614 102.687 5.7028 102.98 5.7028C103.287 5.7028 103.533 5.79614 103.72 5.9828C103.907 6.16947 104 6.41614 104 6.7228V15.6228C104 15.9161 103.907 16.1628 103.72 16.3628C103.533 16.5495 103.287 16.6428 102.98 16.6428ZM109.66 16.6428C109.367 16.6428 109.12 16.5495 108.92 16.3628C108.733 16.1628 108.64 15.9161 108.64 15.6228V9.9028C108.64 9.0628 108.433 8.4428 108.02 8.0428C107.607 7.62947 107.067 7.4228 106.4 7.4228C105.707 7.4228 105.133 7.6628 104.68 8.1428C104.227 8.6228 104 9.23614 104 9.9828H102.74C102.74 9.11614 102.913 8.35614 103.26 7.7028C103.607 7.03614 104.087 6.51614 104.7 6.1428C105.313 5.76947 106.013 5.5828 106.8 5.5828C107.56 5.5828 108.233 5.74947 108.82 6.0828C109.407 6.41614 109.86 6.90947 110.18 7.5628C110.513 8.2028 110.68 8.9828 110.68 9.9028V15.6228C110.68 15.9161 110.587 16.1628 110.4 16.3628C110.213 16.5495 109.967 16.6428 109.66 16.6428ZM125.33 16.7228C124.41 16.7228 123.583 16.5295 122.85 16.1428C122.13 15.7428 121.556 15.1628 121.13 14.4028C120.716 13.6428 120.51 12.7095 120.51 11.6028V6.6828C120.51 6.38947 120.603 6.14947 120.79 5.9628C120.99 5.7628 121.236 5.6628 121.53 5.6628C121.823 5.6628 122.063 5.7628 122.25 5.9628C122.45 6.14947 122.55 6.38947 122.55 6.6828V11.6028C122.55 12.3495 122.69 12.9695 122.97 13.4628C123.25 13.9428 123.63 14.3028 124.11 14.5428C124.59 14.7695 125.13 14.8828 125.73 14.8828C126.303 14.8828 126.81 14.7695 127.25 14.5428C127.703 14.3161 128.063 14.0095 128.33 13.6228C128.596 13.2361 128.73 12.8028 128.73 12.3228H129.99C129.99 13.1495 129.783 13.8961 129.37 14.5628C128.97 15.2295 128.416 15.7561 127.71 16.1428C127.016 16.5295 126.223 16.7228 125.33 16.7228ZM129.75 16.6228C129.456 16.6228 129.21 16.5295 129.01 16.3428C128.823 16.1428 128.73 15.8961 128.73 15.6028V6.6828C128.73 6.37614 128.823 6.12947 129.01 5.9428C129.21 5.75614 129.456 5.6628 129.75 5.6628C130.056 5.6628 130.303 5.75614 130.49 5.9428C130.676 6.12947 130.77 6.37614 130.77 6.6828V15.6028C130.77 15.8961 130.676 16.1428 130.49 16.3428C130.303 16.5295 130.056 16.6228 129.75 16.6228Z" fill="white"/>
</svg>
