<svg width="329" height="301" viewBox="0 0 329 301" fill="none" xmlns="http://www.w3.org/2000/svg">
<path d="M14.4376 30.1718C14.2604 29.5361 14.3197 28.9297 14.6156 28.3528C14.9567 27.8013 15.4452 27.4373 16.0811 27.2606L55.1894 16.3937L56.4598 20.9499L17.3515 31.8168C16.7156 31.9935 16.1089 31.9337 15.5315 31.6375C14.9894 31.3314 14.6247 30.8429 14.4376 30.1718ZM47.6053 5.3718C47.4281 4.73606 47.4796 4.16994 47.7599 3.67344C48.0755 3.16713 48.5159 2.83544 49.0811 2.67838C49.717 2.50168 50.2835 2.5536 50.7804 2.83413C51.2774 3.11466 51.6145 3.5728 51.7917 4.20855L59.8723 33.1881C60.0495 33.8238 59.998 34.3899 59.7178 34.8864C59.4375 35.3829 58.9794 35.7195 58.3435 35.8962C57.7782 36.0533 57.2295 35.9965 56.6972 35.7257C56.2002 35.4452 55.8631 34.9871 55.6859 34.3513L47.6053 5.3718Z" fill="white"/>
<path d="M32.31 84.5707C31.0086 81.8603 30.4367 79.1869 30.5945 76.5506C30.7853 73.8985 31.6369 71.4789 33.1493 69.2919C34.6617 67.105 36.7575 65.3705 39.4366 64.0886C42.1488 62.7909 44.8 62.2133 47.3903 62.3559C50.0136 62.4827 52.3889 63.2363 54.516 64.6168C56.659 66.0302 58.3494 68.0261 59.5874 70.6043C60.7935 73.1164 61.2622 75.5749 60.9934 77.9798C60.7734 80.402 59.8927 82.5916 58.3513 84.5486C56.8257 86.5386 54.7729 88.1509 52.1931 89.3853C51.6308 89.6543 51.0804 89.6941 50.542 89.5046C50.0367 89.2993 49.6491 88.9156 49.3793 88.3537L39.4282 67.629L42.8515 65.991L52.9217 86.9636L50.4096 85.5438C52.2446 84.7065 53.7231 83.5925 54.8451 82.2021C55.9672 80.8116 56.6321 79.274 56.8401 77.5892C57.048 75.9045 56.7234 74.1696 55.8664 72.3847C54.9617 70.5007 53.7382 69.0537 52.1958 68.0439C50.6692 67.0671 48.9462 66.5705 47.0266 66.5541C45.156 66.5549 43.2449 67.0222 41.2935 67.9559C39.342 68.8896 37.8119 70.1502 36.7031 71.7376C35.5943 73.325 34.967 75.0682 34.8212 76.9671C34.6913 78.899 35.0946 80.8401 36.031 82.7903C36.5706 83.9141 37.3166 84.9595 38.269 85.9265C39.2372 86.9265 40.1857 87.6311 41.1143 88.0404C41.6025 88.2946 41.9656 88.6696 42.2036 89.1654C42.4906 89.6784 42.5647 90.1714 42.4257 90.6444C42.2338 91.346 41.8897 91.8154 41.3936 92.0528C40.9134 92.3233 40.3802 92.3142 39.7942 92.0255C38.3443 91.3778 36.917 90.3536 35.5122 88.9527C34.1075 87.5518 33.04 86.0912 32.31 84.5707Z" fill="white"/>
<path d="M45.247 137.796C44.81 137.207 44.6374 136.605 44.7291 135.99C44.8131 135.427 45.15 134.927 45.7397 134.491L66.394 119.223C68.7157 117.552 71.1838 116.571 73.7983 116.28C76.4642 115.996 79.005 116.375 81.4209 117.416C83.8663 118.436 85.9409 120.094 87.6448 122.391C89.3925 124.747 90.398 127.241 90.6615 129.873C90.9763 132.513 90.5981 135.05 89.527 137.483C88.4777 139.946 86.7736 142.049 84.4148 143.793C82.0855 145.515 79.6097 146.547 76.9876 146.889C74.3873 147.261 71.8863 146.967 69.4846 146.006C67.1125 145.024 65.0962 143.414 63.436 141.176C62.0161 139.262 61.1252 137.23 60.7635 135.081C60.4313 132.91 60.5682 130.848 61.1741 128.895L48.525 138.246C47.9353 138.682 47.3472 138.843 46.7607 138.729C46.1448 138.637 45.6402 138.326 45.247 137.796ZM66.3713 138.117C67.5947 139.766 69.0702 140.955 70.798 141.684C72.5772 142.421 74.418 142.656 76.3204 142.39C78.2447 142.153 80.0472 141.413 81.7278 140.171C83.438 138.906 84.6725 137.401 85.4313 135.655C86.2415 133.916 86.5531 132.089 86.3662 130.176C86.2011 128.291 85.5069 126.525 84.2835 124.876C83.1039 123.285 81.6245 122.122 79.8454 121.385C78.0881 120.678 76.2582 120.458 74.3558 120.724C72.4828 120.969 70.6912 121.723 68.9811 122.987C67.3005 124.23 66.055 125.72 65.2449 127.459C64.4347 129.198 64.1121 131.009 64.2772 132.894C64.4718 134.756 65.1698 136.497 66.3713 138.117Z" fill="white"/>
<path d="M104.729 191.143C102.668 189.267 101.269 187.102 100.532 184.647C99.8194 182.164 99.7674 179.638 100.376 177.069C100.984 174.499 102.265 172.145 104.218 170.006C106.196 167.839 108.452 166.348 110.986 165.53C113.547 164.737 116.127 164.631 118.725 165.21C121.349 165.763 123.731 167.014 125.874 168.964C127.989 170.888 129.43 173.117 130.197 175.649C131.016 178.178 131.134 180.74 130.553 183.334C129.999 185.953 128.747 188.358 126.796 190.549L124.782 189.981C122.953 191.984 120.848 193.366 118.467 194.124C116.113 194.907 113.717 195.057 111.279 194.574C108.892 194.088 106.709 192.944 104.729 191.143ZM108.036 188.5C109.555 189.882 111.219 190.752 113.028 191.109C114.889 191.463 116.727 191.326 118.542 190.698C120.384 190.094 122.01 189.02 123.419 187.477C124.853 185.906 125.774 184.191 126.181 182.331C126.641 180.468 126.607 178.629 126.082 176.812C125.583 175.019 124.574 173.432 123.056 172.051C121.564 170.693 119.874 169.825 117.986 169.446C116.125 169.091 114.274 169.216 112.431 169.82C110.614 170.397 108.988 171.47 107.554 173.041C106.145 174.584 105.224 176.3 104.792 178.187C104.36 180.074 104.406 181.926 104.932 183.743C105.51 185.557 106.544 187.143 108.036 188.5ZM114.922 200.045C114.434 199.601 114.15 199.07 114.069 198.451C114.04 197.83 114.261 197.262 114.731 196.748L120.85 190.046L124.849 187.216L126.796 190.549L118.229 199.931C117.759 200.446 117.213 200.717 116.591 200.746C115.994 200.748 115.438 200.514 114.922 200.045Z" fill="white"/>
<path d="M166.668 239.446C166.073 239.084 165.701 238.601 165.554 237.997C165.408 237.393 165.506 236.809 165.85 236.246L173.152 224.272C174.316 222.362 174.901 220.594 174.906 218.966C174.961 217.326 174.559 215.838 173.7 214.5C172.859 213.131 171.656 211.971 170.089 211.019C168.616 210.124 167.103 209.612 165.55 209.483C164.047 209.342 162.645 209.563 161.345 210.146C160.064 210.697 159.032 211.615 158.249 212.898L155.523 211.242C156.789 209.307 158.375 207.869 160.281 206.925C162.239 205.969 164.325 205.542 166.539 205.643C168.753 205.745 170.879 206.414 172.915 207.652C175.109 208.985 176.781 210.645 177.932 212.631C179.133 214.605 179.69 216.789 179.605 219.183C179.551 221.596 178.731 224.101 177.147 226.7L169.845 238.674C169.501 239.237 169.027 239.592 168.422 239.74C167.816 239.887 167.232 239.789 166.668 239.446ZM146.739 227.335C146.113 226.954 145.716 226.478 145.55 225.905C145.435 225.32 145.558 224.73 145.921 224.135L159.151 202.441C159.533 201.815 160.001 201.434 160.556 201.299C161.161 201.152 161.777 201.269 162.403 201.65C162.999 202.012 163.354 202.485 163.47 203.07C163.636 203.643 163.528 204.243 163.146 204.869L149.916 226.563C149.553 227.158 149.069 227.529 148.464 227.676C147.91 227.811 147.335 227.697 146.739 227.335Z" fill="white"/>
<path d="M214.058 263.643C211.615 262.744 209.614 261.442 208.055 259.735C206.544 258.007 205.599 255.96 205.222 253.594C204.845 251.228 205.183 248.618 206.237 245.763L211.095 232.606C211.324 231.987 211.721 231.547 212.286 231.286C212.852 231.025 213.444 231.009 214.064 231.237C214.683 231.465 215.123 231.861 215.383 232.426C215.644 232.99 215.66 233.582 215.431 234.201L210.573 247.358C209.798 249.456 209.559 251.322 209.855 252.955C210.164 254.553 210.863 255.943 211.951 257.125C213.051 258.272 214.445 259.156 216.131 259.776C217.748 260.371 219.325 260.6 220.861 260.462C222.41 260.29 223.76 259.809 224.911 259.022C226.074 258.2 226.916 257.083 227.437 255.673L230.379 256.756C229.51 258.897 228.225 260.632 226.523 261.959C224.834 263.252 222.893 264.062 220.701 264.388C218.509 264.715 216.295 264.466 214.058 263.643ZM225.528 267.512C224.874 267.272 224.411 266.886 224.137 266.356C223.911 265.804 223.925 265.184 224.179 264.496L232.981 240.659C233.222 240.005 233.602 239.559 234.12 239.32C234.686 239.059 235.295 239.049 235.949 239.29C236.603 239.53 237.06 239.933 237.32 240.498C237.594 241.028 237.61 241.62 237.368 242.273L228.567 266.11C228.313 266.798 227.903 267.273 227.338 267.533C226.785 267.76 226.182 267.753 225.528 267.512Z" fill="white"/>
<path d="M283.602 283.946C282.987 283.843 282.496 283.556 282.129 283.085C281.805 282.585 281.703 281.973 281.825 281.25L283.141 273.44L274.788 272.038L274.888 271.441C273.008 271.125 271.39 270.463 270.036 269.455C268.723 268.417 267.782 267.162 267.212 265.691C266.648 264.183 266.518 262.525 266.822 260.718C267.139 258.837 267.856 257.229 268.974 255.892C270.128 254.562 271.57 253.614 273.301 253.049C275.075 252.455 276.992 252.331 279.053 252.677L288.6 254.279C289.323 254.401 289.847 254.712 290.171 255.212C290.538 255.683 290.661 256.28 290.539 257.003L286.318 282.06C286.166 282.741 285.837 283.262 285.33 283.623C284.865 283.954 284.289 284.061 283.602 283.946ZM263.742 279.999C263.345 279.486 263.189 278.976 263.274 278.47C263.395 277.97 263.677 277.515 264.117 277.106L272.957 268.998L278.905 270.108L267.313 280.319C266.703 280.849 266.04 281.035 265.323 280.878C264.599 280.756 264.072 280.463 263.742 279.999ZM276.422 268.296L283.799 269.535L285.717 258.145L278.34 256.907C276.605 256.616 275.052 256.894 273.682 257.742C272.354 258.56 271.55 259.801 271.27 261.464C270.966 263.272 271.304 264.797 272.284 266.04C273.307 267.253 274.686 268.005 276.422 268.296Z" fill="white"/>
</svg>
