<svg width="40" height="40" viewBox="0 0 40 40" fill="none" xmlns="http://www.w3.org/2000/svg">
<path d="M25.2559 6.87524C24.8265 6.87524 24.4272 7.07486 24.1671 7.41964L19.9934 12.9544L17.3984 22.5237L19.9934 37.8878C20.1809 37.8939 20.3624 37.8334 20.5136 37.7185L35.8052 24.9432C35.9745 24.7981 36.1076 24.6226 36.1983 24.417L32.2121 17.2854L36.1983 12.9544C36.1318 12.7608 36.035 12.5793 35.914 12.416L32.1335 7.41964C31.8734 7.08091 31.4742 6.88129 31.0447 6.88129H25.2499L25.2559 6.87524Z" fill="#FF5659"/>
<path d="M8.94856 6.87524C8.51909 6.87524 8.11987 7.07486 7.85976 7.41359L4.07922 12.41C3.95824 12.5733 3.86146 12.7547 3.79492 12.9483L10.3579 16.1966L3.80097 24.4109C3.8917 24.6166 4.02478 24.792 4.1881 24.9372L19.4796 37.7124C19.6309 37.8273 19.8123 37.8878 19.9999 37.8818V12.9544L15.8261 7.41964C15.5721 7.08091 15.1668 6.87524 14.7373 6.87524H8.94856Z" fill="#C6273C"/>
<path d="M19.9999 12.9543H3.795C3.71636 13.1721 3.67402 13.402 3.66797 13.6318V23.8302C3.66797 24.0359 3.71636 24.2355 3.80104 24.417L19.9999 12.9543Z" fill="#FF5659"/>
<path d="M20 12.9543L36.2049 24.423C36.2896 24.2355 36.332 24.0359 36.332 23.8363V13.6318C36.332 13.402 36.2896 13.1721 36.2049 12.9543H20Z" fill="#FF8E90"/>
<path d="M19.9997 12.9543L3.80078 24.417C3.89151 24.6226 4.02459 24.8041 4.18791 24.9493L6.94015 27.2478L19.9997 12.9543Z" fill="#9F131A"/>
<path d="M20 12.9543L36.1989 24.417C36.1082 24.6226 35.9751 24.8041 35.8118 24.9493L33.0595 27.2478L20 12.9543Z" fill="#C6273C"/>
</svg>
