<svg width="40" height="40" viewBox="0 0 40 40" fill="none" xmlns="http://www.w3.org/2000/svg">
<path d="M10.4079 25.7682V23.8816L8.7085 22.9382C8.61489 23.0246 8.53568 23.1327 8.49967 23.2623L7.64275 25.9339C7.57794 26.1283 7.75076 26.3227 7.95239 26.2795L10.4079 25.7682Z" fill="#FF7600"/>
<path d="M8.71619 22.9453L9.35708 25.9914L10.4084 25.7753V24.9328L8.70898 22.9525L8.71619 22.9453Z" fill="#A94800"/>
<path d="M11.1933 26.1787L12.936 24.8969L13.2384 22.1533L9.09784 22.751C8.95382 22.7726 8.817 22.8374 8.70898 22.9382L10.4084 25.7682L11.1933 26.1787Z" fill="#FF8F32"/>
<path d="M14.8503 35.504L12.9852 35.2952L12.1211 37.4987C12.1931 37.5707 12.2939 37.6211 12.4091 37.6211H16.8522C17.0106 37.6211 17.0826 37.4267 16.9602 37.3187L14.8503 35.4968V35.504Z" fill="#FF8F32"/>
<path d="M22.3184 30.0454L24.666 25.5663L23.233 20.2664C23.2042 20.5328 22.9953 20.7488 22.7289 20.7848L13.2451 22.1602L14.9518 28.7852L17.645 29.7429L22.3256 30.0454H22.3184Z" fill="#FF8F32"/>
<path d="M25.71 35.8276L24.5723 36.1661V38.0096C24.6803 38.0816 24.8171 38.1248 24.9611 38.1248H29.613C29.7282 38.1248 29.7714 37.9663 29.6634 37.9087L25.71 35.8276Z" fill="#FF7600"/>
<path d="M25.7108 35.8276L24.8826 36.0797L24.5586 38.0096L26.9061 36.4613L25.7036 35.8276H25.7108Z" fill="#A94800"/>
<path d="M28.5611 24.7671L24.0964 25.0119L22.3105 30.0455L24.2764 37.7218C24.3412 37.8442 24.4421 37.945 24.5573 38.017L25.7022 35.8351L28.4458 25.1055C28.4818 24.9903 28.5251 24.8823 28.5611 24.7671Z" fill="#FF8F32"/>
<path d="M28.3597 1.8822L27.4668 4.71221L28.4389 6.22443H31.917C32.1691 6.22443 32.3779 6.0156 32.3779 5.76357V4.29455C32.3779 4.01371 32.2195 3.75447 31.9675 3.62485L28.7702 1.98302C28.6406 1.91821 28.5037 1.875 28.3597 1.875V1.8822Z" fill="#FF8F32"/>
<path d="M28.3599 1.88965V1.91845C28.3455 1.96166 28.0719 3.78352 27.8486 5.30294L28.4391 6.22468H29.6345L28.3599 1.88965Z" fill="#FF7600"/>
<path d="M27.9352 1.96166L24.8963 3.25065C24.6371 3.35866 24.4571 3.6035 24.4211 3.88434L23.2257 20.2667L22.3184 30.0457L28.5689 24.7674C28.6265 24.5946 28.6625 24.4217 28.6625 24.2417L28.4392 6.23188L28.36 1.88965C28.216 1.88965 28.072 1.91125 27.9352 1.96886V1.96166Z" fill="#FFB973"/>
<path d="M17.6373 29.7431L13.2375 22.1604L11.1924 26.1858L12.0133 37.1674C11.9989 37.297 12.0421 37.4122 12.1285 37.4986L14.8577 35.5039L17.6445 29.7359L17.6373 29.7431Z" fill="#FFB973"/>
</svg>
