<svg width="40" height="40" viewBox="0 0 40 40" fill="none" xmlns="http://www.w3.org/2000/svg">
<path d="M19.9975 8.6399L18.8135 24.5053L31.3278 21.4269C30.8686 21.4269 30.4309 21.2188 30.1439 20.8601L20.4567 8.83364C20.3419 8.70448 20.1697 8.63272 19.9975 8.6399Z" fill="#2875B4"/>
<path d="M19.9983 8.63989C19.8261 8.63989 19.6539 8.70447 19.5391 8.83364L9.85195 20.8601C9.56493 21.2188 9.12721 21.4269 8.66797 21.4269L19.9983 23.1921V8.63989Z" fill="#53ACD9"/>
<path d="M19.998 21.427H1.03268C0.716946 21.427 0.516027 21.7786 0.688243 22.0513L6.06999 30.7625C6.21351 30.9778 6.40725 31.1429 6.64405 31.2433L17.1205 26.5863L19.998 21.4342V21.427Z" fill="#91DAFF"/>
<path d="M19.998 21.427L22.5239 26.6007L33.3591 31.2433C33.5959 31.1429 33.7897 30.9778 33.9332 30.7625L39.3149 22.0513C39.48 21.7786 39.2862 21.427 38.9705 21.427H20.0052H19.998Z" fill="#91DAFF"/>
<path d="M19.9978 21.427L6.63672 31.2433C6.80176 31.3294 6.98833 31.3725 7.17489 31.3797H32.8136C33.0001 31.3725 33.1867 31.3222 33.3517 31.2433L19.9906 21.427H19.9978Z" fill="#53ACD9"/>
</svg>
