<svg width="40" height="40" viewBox="0 0 40 40" fill="none" xmlns="http://www.w3.org/2000/svg">
<path d="M28.2512 20.2314L21.6074 20.6377L22.9574 24.5127L25.8074 25.7627L28.2137 25.6377L28.2574 20.2314H28.2512Z" fill="#7A7A7A"/>
<path d="M19.9455 33.5628L16.008 32.5378L11.083 36.7941C11.208 36.8503 11.3393 36.8816 11.483 36.8816H22.483C22.7205 36.8816 22.8393 36.5941 22.6768 36.4253L19.9455 33.5691V33.5628Z" fill="#7A7A7A"/>
<path d="M19.9454 33.5626L24.1454 27.9313L23.5204 22.3688L22.3079 19.0188L17.0766 16.5376L8.94536 19.5688C8.56411 19.7126 8.26411 20.0001 8.10161 20.3688L6.00161 25.1438C5.83911 25.5126 5.84536 25.9313 6.00786 26.2938L10.5891 36.3001C10.6891 36.5251 10.8704 36.6938 11.0829 36.7876L19.9454 33.5626Z" fill="#BFBFBF"/>
<path d="M28.2141 25.6377L25.4516 26.3127L24.7891 28.9252L27.5703 29.7814C27.8703 29.8752 28.1766 29.6502 28.1766 29.3377L28.2078 25.6377H28.2141Z" fill="#BFBFBF"/>
<path d="M24.7895 28.9316L28.2082 25.6379L23.5145 22.3691L19.9395 33.5629L24.7832 28.9316H24.7895Z" fill="#939393"/>
<path d="M16.9447 3.30024C16.8635 3.19399 16.7947 3.13774 16.7322 3.12524C16.7197 3.12524 16.7072 3.12524 16.701 3.12524C16.626 3.13774 16.5822 3.23774 16.5885 3.42524L17.076 16.5315L20.276 13.619L20.826 8.38149C19.5322 6.68774 18.2385 4.98774 16.9447 3.29399V3.30024Z" fill="#BFBFBF"/>
<path d="M17.0762 16.5377L21.1449 20.2189L23.5262 22.3752L28.2574 20.2377L32.4137 18.3564C32.7824 18.1877 33.0637 17.8814 33.2012 17.5002L34.0887 15.0439C34.2074 14.7064 34.0512 14.3377 33.7262 14.1939L20.8324 8.3877L17.0824 16.5377H17.0762Z" fill="#939393"/>
<path d="M11.083 36.7876L21.308 34.9876L19.9455 33.5564L11.083 36.7876Z" fill="#393939"/>
<path d="M28.2137 25.6377L26.1887 29.3564L24.7949 28.9314L28.2137 25.6377Z" fill="#7A7A7A"/>
</svg>
