<svg width="162" height="20" viewBox="0 0 162 20" fill="none" xmlns="http://www.w3.org/2000/svg">
<path d="M14.4895 19.4651C14.2895 19.6818 14.0061 19.7818 13.6395 19.7651C13.2895 19.7651 13.0145 19.6485 12.8145 19.4151L4.63945 9.81514L12.2145 0.615136C12.4311 0.365136 12.7061 0.240136 13.0395 0.240136C13.3728 0.223469 13.6478 0.331802 13.8645 0.565137C14.0811 0.815136 14.1811 1.07347 14.1645 1.34014C14.1645 1.59014 14.0561 1.84014 13.8395 2.09014L7.46445 9.69014L14.5395 17.9151C14.7395 18.1651 14.8395 18.4235 14.8395 18.6901C14.8561 18.9568 14.7395 19.2151 14.4895 19.4651ZM1.61445 19.7651C1.28112 19.7651 0.997787 19.6568 0.764453 19.4401C0.547787 19.2068 0.439453 18.9235 0.439453 18.5901V1.41514C0.439453 1.06514 0.547787 0.781802 0.764453 0.565137C0.997787 0.34847 1.28112 0.240136 1.61445 0.240136C1.96445 0.240136 2.24779 0.34847 2.46445 0.565137C2.68112 0.781802 2.78945 1.06514 2.78945 1.41514V8.84014H6.83945V10.9151H2.78945V18.5901C2.78945 18.9235 2.68112 19.2068 2.46445 19.4401C2.24779 19.6568 1.96445 19.7651 1.61445 19.7651ZM22.7469 19.8651C21.4135 19.8651 20.2219 19.5735 19.1719 18.9901C18.1385 18.3901 17.3219 17.5735 16.7219 16.5401C16.1385 15.4901 15.8469 14.2901 15.8469 12.9401C15.8469 11.5735 16.1385 10.3735 16.7219 9.34014C17.3219 8.29014 18.1385 7.47347 19.1719 6.89014C20.2219 6.29014 21.4135 5.99014 22.7469 5.99014C24.0802 5.99014 25.2635 6.29014 26.2969 6.89014C27.3469 7.47347 28.1635 8.29014 28.7469 9.34014C29.3469 10.3735 29.6552 11.5735 29.6719 12.9401C29.6719 14.2901 29.3719 15.4901 28.7719 16.5401C28.1719 17.5735 27.3552 18.3901 26.3219 18.9901C25.2885 19.5735 24.0969 19.8651 22.7469 19.8651ZM22.7469 17.8151C23.6635 17.8151 24.4719 17.6068 25.1719 17.1901C25.8719 16.7735 26.4219 16.1985 26.8219 15.4651C27.2219 14.7318 27.4219 13.8901 27.4219 12.9401C27.4219 11.9901 27.2219 11.1485 26.8219 10.4151C26.4219 9.66514 25.8719 9.0818 25.1719 8.66514C24.4719 8.24847 23.6635 8.04014 22.7469 8.04014C21.8469 8.04014 21.0385 8.24847 20.3219 8.66514C19.6219 9.0818 19.0719 9.66514 18.6719 10.4151C18.2719 11.1485 18.0719 11.9901 18.0719 12.9401C18.0719 13.8901 18.2719 14.7318 18.6719 15.4651C19.0719 16.1985 19.6219 16.7735 20.3219 17.1901C21.0385 17.6068 21.8469 17.8151 22.7469 17.8151ZM34.5914 19.7651C34.2581 19.7651 33.9831 19.6568 33.7664 19.4401C33.5497 19.2235 33.4414 18.9485 33.4414 18.6151V7.24014C33.4414 6.89014 33.5497 6.61514 33.7664 6.41514C33.9831 6.19847 34.2581 6.09014 34.5914 6.09014C35.0914 6.09014 35.5081 6.32347 35.8414 6.79014L41.1414 14.4651L46.4664 6.79014C46.7831 6.32347 47.1914 6.09014 47.6914 6.09014C48.0414 6.09014 48.3164 6.19847 48.5164 6.41514C48.7331 6.61514 48.8414 6.89014 48.8414 7.24014V18.6151C48.8414 18.9485 48.7331 19.2235 48.5164 19.4401C48.3164 19.6568 48.0414 19.7651 47.6914 19.7651C47.3414 19.7651 47.0581 19.6568 46.8414 19.4401C46.6414 19.2235 46.5414 18.9485 46.5414 18.6151V8.96514L47.1914 9.16514L42.2914 16.1401C41.9247 16.6568 41.5247 16.9151 41.0914 16.9151C40.6747 16.8985 40.2914 16.6401 39.9414 16.1401L35.0914 9.21514L35.7414 9.01514V18.6151C35.7414 18.9485 35.6331 19.2235 35.4164 19.4401C35.2164 19.6568 34.9414 19.7651 34.5914 19.7651ZM59.3639 19.9901C58.1639 19.9901 57.1055 19.7735 56.1889 19.3401C55.2889 18.8901 54.5889 18.2651 54.0889 17.4651C53.5889 16.6651 53.3389 15.7318 53.3389 14.6651V7.21514C53.3722 6.89847 53.4972 6.6318 53.7139 6.41514C53.9305 6.19847 54.1889 6.09014 54.4889 6.09014C54.8222 6.09014 55.0972 6.19847 55.3139 6.41514C55.5305 6.6318 55.6389 6.9068 55.6389 7.24014V10.3401H59.7389C60.8222 10.3401 61.7805 10.5318 62.6139 10.9151C63.4639 11.2818 64.1305 11.8235 64.6139 12.5401C65.1139 13.2401 65.3639 14.0651 65.3639 15.0151C65.3639 15.9818 65.1139 16.8401 64.6139 17.5901C64.1139 18.3401 63.4139 18.9318 62.5139 19.3651C61.6305 19.7818 60.5805 19.9901 59.3639 19.9901ZM59.3639 17.8651C60.4305 17.8651 61.3222 17.6318 62.0389 17.1651C62.7555 16.6818 63.1139 15.9651 63.1139 15.0151C63.1139 14.1318 62.7972 13.4651 62.1639 13.0151C61.5472 12.5485 60.7389 12.3151 59.7389 12.3151H55.6389V14.6151C55.6389 15.2318 55.7972 15.7901 56.1139 16.2901C56.4472 16.7735 56.8889 17.1568 57.4389 17.4401C57.9889 17.7235 58.6305 17.8651 59.3639 17.8651ZM69.8209 19.7901C69.4876 19.7901 69.2126 19.6818 68.9959 19.4651C68.7792 19.2485 68.6709 18.9735 68.6709 18.6401V7.24014C68.6709 6.89014 68.7792 6.61514 68.9959 6.41514C69.2126 6.19847 69.4876 6.09014 69.8209 6.09014C70.1709 6.09014 70.4459 6.19847 70.6459 6.41514C70.8626 6.61514 70.9709 6.89014 70.9709 7.24014V18.6401C70.9709 18.9735 70.8626 19.2485 70.6459 19.4651C70.4459 19.6818 70.1709 19.7901 69.8209 19.7901ZM70.6459 13.8401C70.3459 13.8401 70.0959 13.7485 69.8959 13.5651C69.6959 13.3651 69.5959 13.1068 69.5959 12.7901C69.5959 12.4735 69.6959 12.2151 69.8959 12.0151C70.0959 11.8151 70.3459 11.7151 70.6459 11.7151H74.3709C74.6876 11.7151 74.9376 11.8151 75.1209 12.0151C75.3209 12.2151 75.4209 12.4735 75.4209 12.7901C75.4209 13.1068 75.3209 13.3651 75.1209 13.5651C74.9376 13.7485 74.6876 13.8401 74.3709 13.8401H70.6459ZM80.6709 19.8651C79.3209 19.8651 78.1209 19.5735 77.0709 18.9901C76.0376 18.3901 75.2209 17.5735 74.6209 16.5401C74.0209 15.4901 73.7209 14.2901 73.7209 12.9401C73.7209 11.5735 74.0209 10.3735 74.6209 9.34014C75.2209 8.29014 76.0376 7.47347 77.0709 6.89014C78.1209 6.29014 79.3209 5.99014 80.6709 5.99014C81.9876 5.99014 83.1626 6.29014 84.1959 6.89014C85.2459 7.47347 86.0626 8.29014 86.6459 9.34014C87.2459 10.3735 87.5459 11.5735 87.5459 12.9401C87.5459 14.2901 87.2542 15.4901 86.6709 16.5401C86.0876 17.5735 85.2709 18.3901 84.2209 18.9901C83.1876 19.5735 82.0042 19.8651 80.6709 19.8651ZM80.6709 17.8151C81.5709 17.8151 82.3709 17.6068 83.0709 17.1901C83.7709 16.7735 84.3209 16.1985 84.7209 15.4651C85.1209 14.7318 85.3209 13.8901 85.3209 12.9401C85.3209 11.9901 85.1209 11.1485 84.7209 10.4151C84.3209 9.66514 83.7709 9.0818 83.0709 8.66514C82.3709 8.24847 81.5709 8.04014 80.6709 8.04014C79.7542 8.04014 78.9459 8.24847 78.2459 8.66514C77.5459 9.0818 76.9876 9.66514 76.5709 10.4151C76.1709 11.1485 75.9709 11.9901 75.9709 12.9401C75.9709 13.8901 76.1709 14.7318 76.5709 15.4651C76.9876 16.1985 77.5459 16.7735 78.2459 17.1901C78.9459 17.6068 79.7542 17.8151 80.6709 17.8151ZM102.927 19.7651C102.593 19.7651 102.318 19.6568 102.102 19.4401C101.885 19.2235 101.777 18.9485 101.777 18.6151V7.24014C101.777 6.89014 101.885 6.61514 102.102 6.41514C102.318 6.19847 102.593 6.09014 102.927 6.09014C103.277 6.09014 103.543 6.19847 103.727 6.41514C103.927 6.61514 104.027 6.89014 104.027 7.24014V18.6151C104.027 18.9485 103.927 19.2235 103.727 19.4401C103.543 19.6568 103.277 19.7651 102.927 19.7651ZM92.4766 19.7651C92.1432 19.7651 91.8682 19.6568 91.6516 19.4401C91.4516 19.2235 91.3516 18.9485 91.3516 18.6151V7.24014C91.3516 6.89014 91.4516 6.61514 91.6516 6.41514C91.8682 6.19847 92.1432 6.09014 92.4766 6.09014C92.8099 6.09014 93.0849 6.19847 93.3016 6.41514C93.5182 6.61514 93.6266 6.89014 93.6266 7.24014V18.6151C93.6266 18.9485 93.5182 19.2235 93.3016 19.4401C93.0849 19.6568 92.8099 19.7651 92.4766 19.7651ZM93.3016 13.7651V11.7151H102.477V13.7651H93.3016ZM114.34 19.8901C113.173 19.8901 112.131 19.6485 111.215 19.1651C110.298 18.6651 109.573 17.9401 109.04 16.9901C108.506 16.0401 108.24 14.8818 108.24 13.5151V7.21514C108.24 6.89847 108.348 6.6318 108.565 6.41514C108.798 6.1818 109.073 6.06514 109.39 6.06514C109.723 6.06514 109.998 6.1818 110.215 6.41514C110.448 6.6318 110.565 6.89847 110.565 7.21514V13.5151C110.565 14.4818 110.748 15.2818 111.115 15.9151C111.481 16.5485 111.973 17.0235 112.59 17.3401C113.223 17.6401 113.931 17.7901 114.715 17.7901C115.481 17.7901 116.156 17.6401 116.74 17.3401C117.34 17.0401 117.815 16.6401 118.165 16.1401C118.531 15.6235 118.715 15.0485 118.715 14.4151H120.215C120.181 15.4485 119.906 16.3818 119.39 17.2151C118.89 18.0485 118.198 18.7068 117.315 19.1901C116.431 19.6568 115.44 19.8901 114.34 19.8901ZM119.865 19.7651C119.531 19.7651 119.256 19.6568 119.04 19.4401C118.823 19.2235 118.715 18.9485 118.715 18.6151V7.21514C118.715 6.8818 118.823 6.6068 119.04 6.39014C119.256 6.17347 119.531 6.06514 119.865 6.06514C120.198 6.06514 120.473 6.17347 120.69 6.39014C120.906 6.6068 121.015 6.8818 121.015 7.21514V18.6151C121.015 18.9485 120.906 19.2235 120.69 19.4401C120.473 19.6568 120.198 19.7651 119.865 19.7651ZM143.657 19.7901C143.324 19.7901 143.049 19.6818 142.832 19.4651C142.615 19.2485 142.507 18.9735 142.507 18.6401V11.4651C142.507 10.3651 142.224 9.52347 141.657 8.94014C141.107 8.3568 140.39 8.06514 139.507 8.06514C138.574 8.06514 137.807 8.39014 137.207 9.04014C136.624 9.67347 136.332 10.4985 136.332 11.5151H134.382C134.399 10.4151 134.64 9.44847 135.107 8.61514C135.574 7.7818 136.224 7.1318 137.057 6.66514C137.89 6.19847 138.832 5.96514 139.882 5.96514C140.849 5.96514 141.699 6.1818 142.432 6.61514C143.182 7.04847 143.765 7.6818 144.182 8.51514C144.599 9.3318 144.807 10.3151 144.807 11.4651V18.6401C144.807 18.9735 144.699 19.2485 144.482 19.4651C144.282 19.6818 144.007 19.7901 143.657 19.7901ZM126.657 19.7901C126.324 19.7901 126.049 19.6818 125.832 19.4651C125.615 19.2485 125.507 18.9735 125.507 18.6401V7.26514C125.507 6.91514 125.615 6.64014 125.832 6.44014C126.049 6.22347 126.324 6.11514 126.657 6.11514C127.007 6.11514 127.282 6.22347 127.482 6.44014C127.699 6.64014 127.807 6.91514 127.807 7.26514V18.6401C127.807 18.9735 127.699 19.2485 127.482 19.4651C127.282 19.6818 127.007 19.7901 126.657 19.7901ZM135.182 19.7901C134.849 19.7901 134.574 19.6818 134.357 19.4651C134.14 19.2485 134.032 18.9735 134.032 18.6401V11.4651C134.032 10.3651 133.749 9.52347 133.182 8.94014C132.632 8.3568 131.915 8.06514 131.032 8.06514C130.099 8.06514 129.324 8.3818 128.707 9.01514C128.107 9.64847 127.807 10.4568 127.807 11.4401H126.307C126.324 10.3735 126.549 9.4318 126.982 8.61514C127.432 7.7818 128.04 7.1318 128.807 6.66514C129.574 6.19847 130.44 5.96514 131.407 5.96514C132.374 5.96514 133.224 6.1818 133.957 6.61514C134.707 7.04847 135.29 7.6818 135.707 8.51514C136.124 9.3318 136.332 10.3151 136.332 11.4651V18.6401C136.332 18.9735 136.224 19.2485 136.007 19.4651C135.807 19.6818 135.532 19.7901 135.182 19.7901ZM154.867 19.8901C153.7 19.8901 152.659 19.6485 151.742 19.1651C150.825 18.6651 150.1 17.9401 149.567 16.9901C149.034 16.0401 148.767 14.8818 148.767 13.5151V7.21514C148.767 6.89847 148.875 6.6318 149.092 6.41514C149.325 6.1818 149.6 6.06514 149.917 6.06514C150.25 6.06514 150.525 6.1818 150.742 6.41514C150.975 6.6318 151.092 6.89847 151.092 7.21514V13.5151C151.092 14.4818 151.275 15.2818 151.642 15.9151C152.009 16.5485 152.5 17.0235 153.117 17.3401C153.75 17.6401 154.459 17.7901 155.242 17.7901C156.009 17.7901 156.684 17.6401 157.267 17.3401C157.867 17.0401 158.342 16.6401 158.692 16.1401C159.059 15.6235 159.242 15.0485 159.242 14.4151H160.742C160.709 15.4485 160.434 16.3818 159.917 17.2151C159.417 18.0485 158.725 18.7068 157.842 19.1901C156.959 19.6568 155.967 19.8901 154.867 19.8901ZM160.392 19.7651C160.059 19.7651 159.784 19.6568 159.567 19.4401C159.35 19.2235 159.242 18.9485 159.242 18.6151V7.21514C159.242 6.8818 159.35 6.6068 159.567 6.39014C159.784 6.17347 160.059 6.06514 160.392 6.06514C160.725 6.06514 161 6.17347 161.217 6.39014C161.434 6.6068 161.542 6.8818 161.542 7.21514V18.6151C161.542 18.9485 161.434 19.2235 161.217 19.4401C161 19.6568 160.725 19.7651 160.392 19.7651Z" fill="white"/>
</svg>
