<svg width="0" height="0" style="position:absolute"><symbol viewBox="0 0 18 8" id="arrow-r" xmlns="http://www.w3.org/2000/svg">
    <path d="M1 3.5C0.723858 3.5 0.5 3.72386 0.5 4C0.5 4.27614 0.723858 4.5 1 4.5V3.5ZM17.3536 4.35355C17.5488 4.15829 17.5488 3.84171 17.3536 3.64645L14.1716 0.464466C13.9763 0.269204 13.6597 0.269204 13.4645 0.464466C13.2692 0.659728 13.2692 0.976311 13.4645 1.17157L16.2929 4L13.4645 6.82843C13.2692 7.02369 13.2692 7.34027 13.4645 7.53553C13.6597 7.7308 13.9763 7.7308 14.1716 7.53553L17.3536 4.35355ZM1 4V4.5H17V4V3.5H1V4Z"/>
</symbol><symbol viewBox="0 0 24 24" id="bubble-qa" xmlns="http://www.w3.org/2000/svg">
    <path d="M22 11.567C22 16.85 17.522 21.133 12 21.133C11.3487 21.1337 10.7037 21.0743 10.065 20.955C9.606 20.868 9.377 20.825 9.217 20.85C9.057 20.874 8.829 20.995 8.375 21.236C7.08134 21.925 5.5928 22.1565 4.151 21.893C4.70175 21.2122 5.07521 20.4054 5.238 19.545C5.338 19.015 5.09 18.5 4.718 18.123C3.034 16.411 2 14.105 2 11.567C2 6.284 6.478 2 12 2C17.522 2 22 6.284 22 11.567Z" stroke-linecap="round" stroke-linejoin="round"/>
    <path d="M10 9.846C10 8.826 10.895 8 12 8C13.105 8 14 8.827 14 9.846C14 10.214 13.884 10.556 13.683 10.844C13.085 11.7 12 12.519 12 13.539V14M12 16.5H12.009" stroke-linecap="round" stroke-linejoin="round"/>
</symbol><symbol viewBox="0 0 24 24" id="filter" xmlns="http://www.w3.org/2000/svg">
    <path d="M21.25 11.9999H8.895M4.534 11.9999H2.75M4.534 11.9999C4.534 11.4217 4.76368 10.8672 5.17251 10.4584C5.58134 10.0496 6.13583 9.81989 6.714 9.81989C7.29217 9.81989 7.84666 10.0496 8.25549 10.4584C8.66432 10.8672 8.894 11.4217 8.894 11.9999C8.894 12.5781 8.66432 13.1326 8.25549 13.5414C7.84666 13.9502 7.29217 14.1799 6.714 14.1799C6.13583 14.1799 5.58134 13.9502 5.17251 13.5414C4.76368 13.1326 4.534 12.5781 4.534 11.9999ZM21.25 18.6069H15.502M15.502 18.6069C15.502 19.1852 15.2718 19.7403 14.8628 20.1492C14.4539 20.5582 13.8993 20.7879 13.321 20.7879C12.7428 20.7879 12.1883 20.5572 11.7795 20.1484C11.3707 19.7396 11.141 19.1851 11.141 18.6069M15.502 18.6069C15.502 18.0286 15.2718 17.4745 14.8628 17.0655C14.4539 16.6566 13.8993 16.4269 13.321 16.4269C12.7428 16.4269 12.1883 16.6566 11.7795 17.0654C11.3707 17.4742 11.141 18.0287 11.141 18.6069M11.141 18.6069H2.75M21.25 5.39289H18.145M13.784 5.39289H2.75M13.784 5.39289C13.784 4.81472 14.0137 4.26023 14.4225 3.8514C14.8313 3.44257 15.3858 3.21289 15.964 3.21289C16.2503 3.21289 16.5338 3.26928 16.7983 3.37883C17.0627 3.48839 17.3031 3.64897 17.5055 3.8514C17.7079 4.05383 17.8685 4.29415 17.9781 4.55864C18.0876 4.82313 18.144 5.10661 18.144 5.39289C18.144 5.67917 18.0876 5.96265 17.9781 6.22714C17.8685 6.49163 17.7079 6.73195 17.5055 6.93438C17.3031 7.13681 17.0627 7.29739 16.7983 7.40695C16.5338 7.5165 16.2503 7.57289 15.964 7.57289C15.3858 7.57289 14.8313 7.34321 14.4225 6.93438C14.0137 6.52555 13.784 5.97106 13.784 5.39289Z" stroke-miterlimit="10" stroke-linecap="round"/>
</symbol><symbol viewBox="0 0 16 81" id="hero-arrow" xmlns="http://www.w3.org/2000/svg">
    <path d="M9 1C9 0.447715 8.55228 -2.41411e-08 8 0C7.44772 2.41411e-08 7 0.447715 7 1L9 1ZM7.2929 80.7071C7.68342 81.0976 8.31659 81.0976 8.70711 80.7071L15.0711 74.3431C15.4616 73.9526 15.4616 73.3195 15.0711 72.9289C14.6805 72.5384 14.0474 72.5384 13.6569 72.9289L8 78.5858L2.34315 72.9289C1.95262 72.5384 1.31946 72.5384 0.928935 72.9289C0.538411 73.3195 0.538411 73.9526 0.928935 74.3431L7.2929 80.7071ZM7 1L7 80L9 80L9 1L7 1Z"/>
</symbol><symbol viewBox="0 0 16 16" id="seal-check" xmlns="http://www.w3.org/2000/svg">
    <path d="M14.1163 6.42625C13.8806 6.18 13.6369 5.92625 13.545 5.70312C13.46 5.49875 13.455 5.16 13.45 4.83187C13.4406 4.22187 13.4306 3.53062 12.95 3.05C12.4694 2.56937 11.7781 2.55937 11.1681 2.55C10.84 2.545 10.5013 2.54 10.2969 2.455C10.0744 2.36312 9.82 2.11937 9.57375 1.88375C9.1425 1.46937 8.6525 1 8 1C7.3475 1 6.85812 1.46937 6.42625 1.88375C6.18 2.11937 5.92625 2.36312 5.70312 2.455C5.5 2.54 5.16 2.545 4.83187 2.55C4.22187 2.55937 3.53062 2.56937 3.05 3.05C2.56937 3.53062 2.5625 4.22187 2.55 4.83187C2.545 5.16 2.54 5.49875 2.455 5.70312C2.36312 5.92562 2.11937 6.18 1.88375 6.42625C1.46937 6.8575 1 7.3475 1 8C1 8.6525 1.46937 9.14187 1.88375 9.57375C2.11937 9.82 2.36312 10.0737 2.455 10.2969C2.54 10.5013 2.545 10.84 2.55 11.1681C2.55937 11.7781 2.56937 12.4694 3.05 12.95C3.53062 13.4306 4.22187 13.4406 4.83187 13.45C5.16 13.455 5.49875 13.46 5.70312 13.545C5.92562 13.6369 6.18 13.8806 6.42625 14.1163C6.8575 14.5306 7.3475 15 8 15C8.6525 15 9.14187 14.5306 9.57375 14.1163C9.82 13.8806 10.0737 13.6369 10.2969 13.545C10.5013 13.46 10.84 13.455 11.1681 13.45C11.7781 13.4406 12.4694 13.4306 12.95 12.95C13.4306 12.4694 13.4406 11.7781 13.45 11.1681C13.455 10.84 13.46 10.5013 13.545 10.2969C13.6369 10.0744 13.8806 9.82 14.1163 9.57375C14.5306 9.1425 15 8.6525 15 8C15 7.3475 14.5306 6.85812 14.1163 6.42625ZM13.3944 8.88188C13.095 9.19438 12.785 9.5175 12.6206 9.91438C12.4631 10.2956 12.4563 10.7312 12.45 11.1531C12.4437 11.5906 12.4369 12.0487 12.2425 12.2425C12.0481 12.4363 11.5931 12.4437 11.1531 12.45C10.7312 12.4563 10.2956 12.4631 9.91438 12.6206C9.5175 12.785 9.19438 13.095 8.88188 13.3944C8.56938 13.6937 8.25 14 8 14C7.75 14 7.42812 13.6925 7.11812 13.3944C6.80813 13.0962 6.4825 12.785 6.08563 12.6206C5.70438 12.4631 5.26875 12.4563 4.84688 12.45C4.40938 12.4437 3.95125 12.4369 3.7575 12.2425C3.56375 12.0481 3.55625 11.5931 3.55 11.1531C3.54375 10.7312 3.53688 10.2956 3.37937 9.91438C3.215 9.5175 2.905 9.19438 2.60562 8.88188C2.30625 8.56938 2 8.25 2 8C2 7.75 2.3075 7.42812 2.60562 7.11812C2.90375 6.80813 3.215 6.4825 3.37937 6.08563C3.53688 5.70438 3.54375 5.26875 3.55 4.84688C3.55625 4.40938 3.56312 3.95125 3.7575 3.7575C3.95187 3.56375 4.40688 3.55625 4.84688 3.55C5.26875 3.54375 5.70438 3.53688 6.08563 3.37937C6.4825 3.215 6.80562 2.905 7.11812 2.60562C7.43062 2.30625 7.75 2 8 2C8.25 2 8.57188 2.3075 8.88188 2.60562C9.19188 2.90375 9.5175 3.215 9.91438 3.37937C10.2956 3.53688 10.7312 3.54375 11.1531 3.55C11.5906 3.55625 12.0487 3.56312 12.2425 3.7575C12.4363 3.95187 12.4437 4.40688 12.45 4.84688C12.4563 5.26875 12.4631 5.70438 12.6206 6.08563C12.785 6.4825 13.095 6.80562 13.3944 7.11812C13.6937 7.43062 14 7.75 14 8C14 8.25 13.6925 8.57188 13.3944 8.88188ZM10.8538 6.14625C10.9002 6.19269 10.9371 6.24783 10.9623 6.30853C10.9874 6.36923 11.0004 6.43429 11.0004 6.5C11.0004 6.56571 10.9874 6.63077 10.9623 6.69147C10.9371 6.75217 10.9002 6.80731 10.8538 6.85375L7.35375 10.3538C7.30731 10.4002 7.25217 10.4371 7.19147 10.4623C7.13077 10.4874 7.06571 10.5004 7 10.5004C6.93429 10.5004 6.86923 10.4874 6.80853 10.4623C6.74783 10.4371 6.69269 10.4002 6.64625 10.3538L5.14625 8.85375C5.05243 8.75993 4.99972 8.63268 4.99972 8.5C4.99972 8.36732 5.05243 8.24007 5.14625 8.14625C5.24007 8.05243 5.36732 7.99972 5.5 7.99972C5.63268 7.99972 5.75993 8.05243 5.85375 8.14625L7 9.29313L10.1462 6.14625C10.1927 6.09976 10.2478 6.06288 10.3085 6.03772C10.3692 6.01256 10.4343 5.99961 10.5 5.99961C10.5657 5.99961 10.6308 6.01256 10.6915 6.03772C10.7522 6.06288 10.8073 6.09976 10.8538 6.14625Z"/>
</symbol><symbol viewBox="0 0 19 22" id="tringle" xmlns="http://www.w3.org/2000/svg">
    <path d="M18.5 11L0.499999 21.3923L0.5 0.607695L18.5 11Z"/>
</symbol></svg>