<svg width="0" height="0" style="position:absolute"><symbol viewBox="0 0 16 81" id="hero-arrow" xmlns="http://www.w3.org/2000/svg">
    <path d="M9 1C9 0.447715 8.55228 -2.41411e-08 8 0C7.44772 2.41411e-08 7 0.447715 7 1L9 1ZM7.2929 80.7071C7.68342 81.0976 8.31659 81.0976 8.70711 80.7071L15.0711 74.3431C15.4616 73.9526 15.4616 73.3195 15.0711 72.9289C14.6805 72.5384 14.0474 72.5384 13.6569 72.9289L8 78.5858L2.34315 72.9289C1.95262 72.5384 1.31946 72.5384 0.928935 72.9289C0.538411 73.3195 0.538411 73.9526 0.928935 74.3431L7.2929 80.7071ZM7 1L7 80L9 80L9 1L7 1Z"/>
</symbol></svg>